<?xml version="1.0" encoding="UTF-8"?>
<svg id="Layer_2" data-name="Layer 2" xmlns="http://www.w3.org/2000/svg" viewBox="0 0 753.36 511.03">
  <defs>
    <style>
      .cls-1 {
        fill: #1d6a89;
      }
    </style>
  </defs>
  <g id="Layer_1-2" data-name="Layer 1">
    <g>
      <path class="cls-1" d="M260.46,192.76c.78-1.42,1.43-5.38.96-6.71-.59-1.67-4.45-3.52-6.23-3.66l-21.8-1.71c-2.82-.22-7.61-3.96-8.62-6.55-1.2-3.08.02-8.53,2.55-11.49l130.74-10.86c8.37-.17,15.72,1.42,22.68,5l61.57,35.88-200.01,33.02,18.17-32.92Z"/>
      <g>
        <path class="cls-1" d="M535.26,351.83l-351.45.36c-7.65,0-15.26-4.63-17.99-10.95l-32.49-75.27,211.62-33.78,323-51.43c2.69-.43,7.69.23,8.39,1.95.7,1.72.75,7.02-.23,9.03-20.18,41.56-44.3,82.56-71.63,120.48-15.9,22.06-39.34,39.57-69.23,39.6Z"/>
        <path class="cls-1" d="M663.95,321c-2.98-1.96-5.39-4.43-5.88-7.86,23.65,7.19,45.87,19.02,65.02,34.64,8.12,6.62,15.77,14,21.44,22.82,5.67,8.82,9.27,19.2,8.79,29.67-.76,16.62-11.47,31.12-23.41,42.71-9.58,9.3-19.62,16.42-32.35,20.65-21.17,7.04-43.89,16.96-65.71,21.26-40.47,7.98-80.3,10.99-120.89,18.37-8.1,1.29-16.23,2.36-24.39,3.12-106.11,9.94-211.55,3.57-316.23-15.21l-68.69-12.32c-10.69-1.92-23.19-6.18-33.73-9.41-22.71-6.96-42.04-22.63-56.43-40.26-15-18.38-15-41.76-1.74-60.91,9.73-14.06,23.14-25.88,38.35-34.58,17.85-10.22,36.15-21.36,57.58-23.52-24.84,15.41-48.54,24.57-64.18,47C.1,416.49,105.66,454.81,145.85,467.51c15.2,4.8,30.36,5.25,46.33,6.25l60.73,3.79c90.02,5.61,178.26,6.91,267.5-3.37,9.47-1.09,19.42-2.08,28.88-2.27,51.8-1.08,106.65-13.33,147.9-46.23,13.78-10.99,26.63-26.27,25.74-43.88-.67-13.12-8.95-24.66-18.37-33.82-9.95-9.68-21.55-17.68-34.14-23.54-2.15-1-4.45-2.1-6.49-3.43Z"/>
        <path class="cls-1" d="M111.92,370.29c3.36-8.41,10.4-14.44,17.2-18.23-10.23,26.51,20.35,43.94,40,51.57,77.57,30.12,175.36,35.75,258.07,31.82,55.05-2.61,149.94-14.04,192.82-48.92,12.1-9.84,11.69-23.11,5.01-36.83,8.64,4.18,15.52,11.57,18.88,20.41,3.7,9.72-.16,20.85-7.37,28.23-40.9,41.87-153.52,56.41-210.51,56.3l-93.39-.18c-58.41-.11-171.36-15.6-213.99-58.66-6.05-6.11-10.26-16.69-6.73-25.51Z"/>
        <path class="cls-1" d="M366.93,83.5c-21.38-4.46-33.45-24.2-32.5-43.45,1-20.25,15.92-37.97,37.57-39.87,26.25-2.31,46.36,19.19,45.03,44.05-1.32,24.67-23.12,44.9-50.09,39.27Z"/>
      </g>
    </g>
  </g>
</svg>