<?xml version="1.0" encoding="UTF-8"?>
<svg id="Layer_2" data-name="Layer 2" xmlns="http://www.w3.org/2000/svg" viewBox="0 0 781.68 650.71">
  <defs>
    <style>
      .cls-1 {
        fill: #1d6a89;
      }
    </style>
  </defs>
  <g id="Layer_1-2" data-name="Layer 1">
    <g>
      <g>
        <g>
          <path class="cls-1" d="M156.55,650.58l-17.74.13v-84.48s16.17-.1,16.17-.1l.49,7.87c5.18-6,11.86-8.61,19.56-8.8,11.76-.28,22.15,5.77,27.2,16.59s4.8,22.82.36,33.55c-4.71,10.65-14.42,17.08-25.95,17.54-7.71.31-14.43-2.23-19.94-8.36l-.15,26.05ZM185.81,608.25c2.53-5.98,2.47-12.62.13-18.36-2.3-5.64-7.3-9.28-12.89-9.48-5.93-.21-11.41,2.62-14.18,8.18-3.13,6.28-3.12,14.05-.03,20.27,2.74,5.51,7.86,8.56,13.67,8.52,5.63-.04,10.88-3.39,13.31-9.13Z"/>
          <path class="cls-1" d="M109.19,624.12c-6.71,9.07-19.35,10.73-29.47,7.33-8.39-2.81-13.48-10.32-13.37-18.77.18-13.6,11.77-20.09,24.65-20.21l16.36-.15c.55-6.93-4.09-12.22-10.97-12.84-7.45-.68-14.58,1.68-20.67,6.63l-6.74-12.59c12.42-10.7,43.28-12.72,52.31,3.39,2.34,4.17,3.52,9.15,3.54,13.98l.08,24.37c0,2.23,2.03,3.07,3.9,3.46v13.05c-4.31.89-8.41.98-12.61.36-3.94-.72-6.2-3.14-7.01-8ZM106.93,611.94c.87-2.67.44-5.79.36-8.62-5.61-.04-10.77-.21-16.02.34-4.53.47-7.72,4.37-7.53,8.38.2,4.3,3.32,7.61,7.87,8.15,6.21.74,13.16-1.66,15.32-8.24Z"/>
          <polygon class="cls-1" points="44.53 631.99 26.16 632.07 26.12 561.97 0 561.95 .04 545.87 70.85 545.86 70.81 561.94 44.68 561.95 44.53 631.99"/>
        </g>
        <g>
          <g>
            <path class="cls-1" d="M576.56,598.19c12.25,5.26,15.53,14.6,13.78,26.61-1.09,6.82-5.14,11.99-11.33,14.99-5.1,1.84-10.39,3.59-16.07,3.6l-45.9.05v-86.18s40.87-.05,40.87-.05c5.18,0,10.17.82,14.89,2.21,9.37,2.99,14.52,11.01,14.41,20.68-.09,7.7-3.64,14.15-10.65,18.09ZM559.67,591.63c5.78-.44,9.33-5.18,9.1-10.18-.22-4.9-4.43-8.98-9.92-9.02l-23.47-.18.12,19.74c8.72-.1,16.09.26,24.17-.35ZM570.02,624.39c3.3-4.11,2.71-9.86.06-13.83-2.89-2.63-6.49-4.03-10.48-4.03h-24.25s.03,21.64.03,21.64l25.87.04c3.02-.65,6.65-1.18,8.76-3.82Z"/>
            <path class="cls-1" d="M661.87,596.71c6.67,16.99.2,38.39-18.43,45.29-7.48,2.77-15.27,3.03-22.96,1.01-14.61-3.83-23.95-16.72-24.24-31.69-.25-12.95,5.78-25.05,17.64-30.92,16.79-8.32,40.32-3.24,48,16.32ZM644.21,619.99c2.69-5.85,2.76-12.36.63-18.12-2.44-6.59-8.61-10.62-15.22-10.3-6.79.32-12.52,4.91-14.34,11.69-1.39,5.2-1.31,10.79.66,15.76,2.34,5.89,7.71,9.61,13.5,9.9,6.17.3,12.01-2.94,14.76-8.93Z"/>
            <path class="cls-1" d="M711.44,635.26c-6.99,9.79-20.87,10.99-30.78,6.97-8.07-3.27-12.44-11.02-11.7-19.59,1.14-13.13,12.46-18.66,24.22-18.78l16.3-.16c.69-6.36-3.58-11.81-10.14-12.74-7.69-1.1-14.85,1.37-21.31,6.44l-6.77-12.44c11.64-10.28,39.16-12.12,49.82.06,4.16,4.75,6.11,11.03,6.11,17.46v23.43c0,2.49,1.48,3.72,4,4.08l-.08,13.25c-4.3.51-8.29.77-12.38.29-4.32-.51-6.71-3.76-7.3-8.29ZM709.75,614.71c-7.54.51-22.68-2.74-23.5,7.68-.3,3.85,1.76,7.35,5.67,8.64,3.57,1.18,7.56.86,11.03-.8,6.62-3.17,7.3-8.61,6.8-15.52Z"/>
            <path class="cls-1" d="M776.55,626.6l5.12,13.01c-5.98,4.46-13.45,5.23-20.87,4.28-9.49-1.21-17.39-8.41-17.49-18.38l-.31-32.69-10.03-.12-.03-14.51,10.06-.21.14-16.87,17.73.06.14,16.86,15.96.04.07,14.61-16.17.15.07,28.57c0,2.94,1.95,6.21,4.41,7.26,3.82,1.63,7.44.48,11.19-2.07Z"/>
          </g>
          <g>
            <path class="cls-1" d="M328.87,645.82c-7.24,0-14.42-2.01-20.55-6.01-10.68-6.97-16.57-19.65-15.76-33.91.6-10.63,5-19.92,12.37-26.19,7.58-6.43,17.85-9.32,28.91-8.14,15.61,1.67,27.62,12.49,30.59,27.55h0c3.49,17.69-2.96,34.04-16.41,41.67-5.92,3.35-12.56,5.02-19.15,5.02ZM329.03,574.2c-8.52,0-16.29,2.67-22.24,7.72-6.77,5.75-10.81,14.33-11.37,24.16-.75,13.23,4.66,24.94,14.47,31.34,10.81,7.05,25.22,7.4,36.72.89,12.36-7.01,18.25-22.16,15.01-38.62h0c-2.72-13.8-13.74-23.71-28.08-25.25-1.52-.16-3.03-.24-4.51-.24ZM328.85,632.53c-9.78,0-17.87-6.13-20.49-15.72-1.25-4.6-1.34-9.9-.26-15.34,1.88-9.48,9.52-16.36,19-17.12,9.96-.8,18.8,5.06,21.99,14.58,2.39,7.15,2.07,14.82-.91,21.58-3.05,6.93-9.39,11.28-17.37,11.93h0c-.66.05-1.31.08-1.95.08ZM328.9,587.15c-.52,0-1.04.02-1.57.06-8.19.66-14.79,6.62-16.42,14.82-.99,5-.92,9.85.22,14.02,2.41,8.85,10.22,14.29,19.44,13.53h0c6.91-.57,12.37-4.3,14.98-10.23,2.7-6.11,2.99-13.04.82-19.52-2.59-7.75-9.5-12.7-17.47-12.7Z"/>
            <path class="cls-1" d="M400.57,645.68c-2,0-4.06-.17-6.16-.53-13.85-2.35-22.15-13.67-22.2-30.27l-.13-42.43,17.81-.23.17,42.64c.02,3.96,1.62,9.17,5.17,11.88,5.75,4.4,14.84,3.6,19.85-1.75,2.89-3.09,4.63-7.76,4.64-12.51l.11-40.1,17.54-.1.09,55.6c0,.73.18,1.52,2.28,2.35l.9.36.06,14.23h-1.44c-.68,0-1.63.07-2.73.14-5.42.37-13.62.94-14.93-4.33l-.79-3.18c-4.9,5.33-12.07,8.23-20.23,8.23ZM374.95,575.28l.12,39.59c.05,15.1,7.45,25.36,19.81,27.45,10.71,1.82,20.22-1.49,25.44-8.83l1.8-2.54,2.25,8.98c.74,2.94,8.03,2.43,11.95,2.16.53-.04,1.03-.07,1.49-.1l-.04-9.5c-1.56-.77-3.19-2.07-3.19-4.62l-.08-52.72-11.81.07-.11,37.25c-.02,5.45-2.04,10.86-5.42,14.46-6.08,6.49-16.71,7.41-23.69,2.07-3.8-2.91-6.27-8.46-6.3-14.15l-.16-39.74-12.07.16Z"/>
            <path class="cls-1" d="M251.64,644.8l-.04-33.61-35.24-60.36,20.25-.08,24.71,42.58,24.21-42.53,19.41.02-34.74,60.49-.07,33.47-18.49.02ZM221.34,553.68l33.12,56.73.04,31.52h12.76s.06-31.38.06-31.38l32.65-56.86h-12.79s-25.85,45.4-25.85,45.4l-26.38-45.46-13.61.05Z"/>
            <path class="cls-1" d="M451.08,644.78v-72.37s16.79-.16,16.79-.16l.25,8.08c6-6.55,13.78-9.59,22.7-8.82l1.32.11-.06,17.77-1.67-.29c-8.11-1.41-15.05,1.49-18.59,7.75-1.84,3.25-2.94,7.53-2.94,11.46l-.07,36.45-17.73.02ZM453.95,575.25v66.65s11.99-.01,11.99-.01l.06-33.59c0-4.39,1.25-9.2,3.31-12.86,3.91-6.92,11.27-10.37,19.9-9.4l.04-11.75c-8.69-.36-15.85,3.26-21.3,10.78l-2.47,3.41-.41-13.32-11.13.11Z"/>
          </g>
        </g>
      </g>
      <g>
        <path class="cls-1" d="M274.62,192.76c.78-1.42,1.43-5.38.96-6.71-.59-1.67-4.45-3.52-6.23-3.66l-21.8-1.71c-2.82-.22-7.61-3.96-8.62-6.55-1.2-3.08.02-8.53,2.55-11.49l130.74-10.86c8.37-.17,15.72,1.42,22.68,5l61.57,35.88-200.01,33.02,18.17-32.92Z"/>
        <g>
          <path class="cls-1" d="M549.42,351.83l-351.45.36c-7.65,0-15.26-4.63-17.99-10.95l-32.49-75.27,211.62-33.78,323-51.43c2.69-.43,7.69.23,8.39,1.95.7,1.72.75,7.02-.23,9.03-20.18,41.56-44.3,82.56-71.63,120.48-15.9,22.06-39.34,39.57-69.23,39.6Z"/>
          <path class="cls-1" d="M678.11,321c-2.98-1.96-5.39-4.43-5.88-7.86,23.65,7.19,45.87,19.02,65.02,34.64,8.12,6.62,15.77,14,21.44,22.82,5.67,8.82,9.27,19.2,8.79,29.67-.76,16.62-11.47,31.12-23.41,42.71-9.58,9.3-19.62,16.42-32.35,20.65-21.17,7.04-43.89,16.96-65.71,21.26-40.47,7.98-80.3,10.99-120.89,18.37-8.1,1.29-16.23,2.36-24.39,3.12-106.11,9.94-211.55,3.57-316.23-15.21l-68.69-12.32c-10.69-1.92-23.19-6.18-33.73-9.41-22.71-6.96-42.04-22.63-56.43-40.26-15-18.38-15-41.76-1.74-60.91,9.73-14.06,23.14-25.88,38.35-34.58,17.85-10.22,36.15-21.36,57.58-23.52-24.84,15.41-48.54,24.57-64.18,47-41.38,59.33,64.19,97.65,104.38,110.35,15.2,4.8,30.36,5.25,46.33,6.25l60.73,3.79c90.02,5.61,178.26,6.91,267.5-3.37,9.47-1.09,19.42-2.08,28.88-2.27,51.8-1.08,106.65-13.33,147.9-46.23,13.78-10.99,26.63-26.27,25.74-43.88-.67-13.12-8.95-24.66-18.37-33.82-9.95-9.68-21.55-17.68-34.14-23.54-2.15-1-4.45-2.1-6.49-3.43Z"/>
          <path class="cls-1" d="M126.08,370.29c3.36-8.41,10.4-14.44,17.2-18.23-10.23,26.51,20.35,43.94,40,51.57,77.57,30.12,175.36,35.75,258.07,31.82,55.05-2.61,149.94-14.04,192.82-48.92,12.1-9.84,11.69-23.11,5.01-36.83,8.64,4.18,15.52,11.57,18.88,20.41,3.7,9.72-.16,20.85-7.37,28.23-40.9,41.87-153.52,56.41-210.51,56.3l-93.39-.18c-58.41-.11-171.36-15.6-213.99-58.66-6.05-6.11-10.26-16.69-6.73-25.51Z"/>
          <path class="cls-1" d="M381.09,83.5c-21.38-4.46-33.45-24.2-32.5-43.45,1-20.25,15.92-37.97,37.57-39.87,26.25-2.31,46.36,19.19,45.03,44.05-1.32,24.67-23.12,44.9-50.09,39.27Z"/>
        </g>
      </g>
    </g>
  </g>
</svg>