<svg xmlns="http://www.w3.org/2000/svg" viewBox="0 0 1142.67 394">
<defs>
<clipPath id="clip_1">
<path transform="matrix(1,0,0,-1,0,394)" d="M0 394H1142.667V0H0Z"/>
</clipPath>
</defs>
<g clip-path="url(#clip_1)">
<path transform="matrix(1,0,0,-1,693.9423,149.5953)" d="M0 0C2.643 6.253 2.58 13.197 .133 19.193-2.272 25.086-7.504 28.898-13.342 29.106-19.545 29.326-25.275 26.364-28.172 20.556-31.446 13.992-31.435 5.871-28.203-.64-25.341-6.405-19.98-9.592-13.912-9.548-8.024-9.505-2.539-6.008 0 0M-30.592-44.26-49.139-44.398-49.153 43.936-32.233 44.039-31.717 35.806C-26.306 42.075-19.315 44.81-11.263 45.002 1.037 45.295 11.891 38.972 17.176 27.654 22.32 16.638 22.19 3.797 17.556-7.429 12.637-18.561 2.474-25.283-9.579-25.771-17.641-26.098-24.667-23.44-30.431-17.025Z" fill="#1d6a89"/>
<path transform="matrix(1,0,0,-1,611.4712,153.4561)" d="M0 0C.913 2.787 .458 6.051 .378 9.017-5.484 9.06-10.884 9.238-16.374 8.663-21.108 8.168-24.444 4.094-24.246-.098-24.034-4.592-20.776-8.05-16.014-8.619-9.522-9.395-2.254-6.879 0 0M2.355-12.73C-4.665-22.217-17.874-23.945-28.46-20.398-37.234-17.458-42.552-9.608-42.434-.77-42.245 13.448-30.131 20.235-16.657 20.362L.453 20.523C1.027 27.766-3.828 33.298-11.018 33.95-18.81 34.657-26.258 32.189-32.634 27.014L-39.677 40.18C-26.688 51.37 5.579 53.476 15.015 36.631 17.46 32.267 18.699 27.067 18.716 22.016L18.799-3.462C18.807-5.792 20.92-6.673 22.872-7.079L22.885-20.72C18.368-21.648 14.076-21.749 9.682-21.094 5.564-20.341 3.195-17.808 2.355-12.73" fill="#1d6a89"/>
<path transform="matrix(1,0,0,-1,546.2231,174.4135)" d="M0 0-19.203-.085-19.245 73.206-46.556 73.223-46.516 90.042 27.522 90.052 27.481 73.242 .154 73.228Z" fill="#1d6a89"/>
<path transform="matrix(1,0,0,-1,882.3694,271.2599)" d="M0 0C3.447 4.298 2.836 10.311 .063 14.458-2.959 17.204-6.726 18.669-10.89 18.671L-36.246 18.683-36.213-3.957-9.164-3.995C-6.005-3.318-2.211-2.757 0 0M-10.822 34.255C-4.784 34.716-1.071 39.676-1.306 44.895-1.536 50.013-5.937 54.285-11.676 54.33L-36.219 54.523-36.089 33.888C-26.976 33.997-19.264 33.611-10.822 34.255M6.839 27.396C19.648 21.892 23.08 12.128 21.252-.422 20.113-7.552 15.874-12.954 9.402-16.096 4.066-18.018-1.458-19.855-7.403-19.861L-55.392-19.914-55.4 70.194-12.661 70.244C-7.246 70.25-2.032 69.385 2.908 67.931 12.703 64.802 18.091 56.42 17.971 46.313 17.876 38.257 14.165 31.522 6.839 27.396" fill="#1d6a89"/>
<path transform="matrix(1,0,0,-1,959.9384,266.6615)" d="M0 0C2.809 6.112 2.881 12.919 .656 18.942-1.89 25.835-8.347 30.041-15.253 29.712-22.348 29.374-28.346 24.582-30.245 17.489-31.7 12.051-31.616 6.211-29.551 1.009-27.104-5.154-21.489-9.043-15.434-9.34-8.982-9.656-2.88-6.267 0 0M18.461 24.346C25.433 6.58 18.67-15.789-.811-23.006-8.632-25.903-16.777-26.169-24.82-24.058-40.091-20.049-49.865-6.575-50.161 9.079-50.418 22.614-44.12 35.271-31.722 41.411-14.169 50.105 10.436 44.796 18.461 24.346" fill="#1d6a89"/>
<path transform="matrix(1,0,0,-1,1028.4652,261.135)" d="M0 0C-7.884-.531-23.708 2.865-24.568-8.026-24.886-12.056-22.726-15.711-18.642-17.064-14.91-18.3-10.733-17.96-7.107-16.223-.185-12.906 .524-7.22 0 0M1.768-21.485C-5.537-31.725-20.058-32.98-30.417-28.777-38.852-25.355-43.429-17.256-42.649-8.294-41.454 5.433-29.623 11.219-17.325 11.339L-.283 11.504C.438 18.154-4.024 23.848-10.885 24.827-18.93 25.975-26.414 23.39-33.166 18.091L-40.239 31.096C-28.065 41.846 .704 43.764 11.846 31.031 16.191 26.067 18.238 19.5 18.235 12.774L18.226-11.727C18.225-14.326 19.782-15.62 22.418-15.997L22.34-29.851C17.846-30.387 13.675-30.656 9.396-30.149 4.874-29.614 2.385-26.223 1.768-21.485" fill="#1d6a89"/>
<path transform="matrix(1,0,0,-1,1098.3099,273.5665)" d="M0 0 5.357-13.606C-.901-18.274-8.703-19.078-16.467-18.086-26.394-16.817-34.652-9.29-34.751 1.133L-35.075 35.308-45.563 35.435-45.589 50.611-35.071 50.826-34.93 68.469-16.391 68.402-16.244 50.776 .446 50.733 .524 35.459-16.384 35.304-16.31 5.433C-16.303 2.364-14.268-1.065-11.7-2.163-7.706-3.87-3.925-2.667 0 0" fill="#1d6a89"/>
<path transform="matrix(1,0,0,-1,630.2565,232.3184)" d="M0 0C-.542 0-1.088-.021-1.638-.066-10.203-.756-17.103-6.983-18.808-15.561-19.847-20.789-19.768-25.859-18.579-30.223-16.059-39.477-7.894-45.167 1.744-44.375 8.964-43.782 14.674-39.884 17.409-33.68 20.227-27.288 20.531-20.042 18.265-13.275 15.552-5.174 8.334 0 0 0M-.053-47.449C-10.274-47.449-18.741-41.044-21.474-31.011-22.783-26.202-22.879-20.657-21.75-14.976-19.781-5.068-11.796 2.125-1.879 2.924 8.536 3.764 17.775-2.364 21.11-12.323 23.613-19.798 23.274-27.813 20.154-34.89 16.961-42.132 10.34-46.679 1.989-47.365 1.302-47.421 .62-47.449-.053-47.449M.141 13.541C-8.769 13.541-16.895 10.747-23.108 5.474-30.19-.535-34.41-9.506-34.993-19.787-35.776-33.615-30.122-45.867-19.868-52.559-8.567-59.934 6.503-60.3 18.521-53.488 31.445-46.164 37.605-30.316 34.214-13.113 31.371 1.315 19.846 11.678 4.853 13.286 3.263 13.457 1.689 13.541 .141 13.541M-.025-61.35C-7.594-61.35-15.107-59.249-21.508-55.071-32.672-47.785-38.833-34.531-37.988-19.617-37.358-8.507-32.764 1.216-25.05 7.762-17.122 14.488-6.392 17.511 5.173 16.269 21.499 14.518 34.054 3.21 37.158-12.533 40.802-31.026 34.068-48.126 20.001-56.099 13.812-59.606 6.87-61.35-.025-61.35" fill="#1d6a89"/>
<path transform="matrix(1,0,0,-1,678.4069,219.9136)" d="M0 0 .13-41.39C.179-57.174 7.922-67.905 20.843-70.095 32.038-71.993 41.98-68.54 47.441-60.859L49.329-58.205 51.679-67.598C52.448-70.669 60.078-70.141 64.177-69.859 64.733-69.82 65.254-69.784 65.734-69.756L65.694-59.826C64.063-59.025 62.361-57.657 62.357-54.997L62.271 .121 49.919 .048 49.809-38.901C49.793-44.601 47.674-50.254 44.141-54.023 37.786-60.804 26.674-61.774 19.373-56.186 15.397-53.143 12.813-47.336 12.789-41.391L12.623 .163ZM26.788-73.608C24.694-73.608 22.539-73.425 20.342-73.053 5.861-70.599-2.816-58.766-2.87-41.4L-3.01 2.961 15.611 3.202 15.789-41.379C15.806-45.516 17.484-50.962 21.196-53.803 27.205-58.402 36.709-57.564 41.953-51.971 44.979-48.742 46.795-43.853 46.809-38.892L46.928 3.031 65.266 3.139 65.357-54.992C65.358-55.76 65.543-56.582 67.741-57.45L68.686-57.823 68.746-72.703H67.24C66.527-72.704 65.534-72.772 64.384-72.852 58.714-73.242 50.147-73.835 48.769-68.327L47.938-65.005C42.818-70.58 35.313-73.608 26.788-73.608" fill="#1d6a89"/>
<path transform="matrix(1,0,0,-1,517.8024,197.3232)" d="M0 0 34.632-59.316 34.674-92.271 48.014-92.26 48.078-59.457 82.218-.01 68.848 .005 41.815-47.476 14.233 .054ZM31.678-95.274 31.633-60.129-5.214 2.98 15.957 3.061 41.791-41.456 67.105 3.007 87.396 2.984 51.076-60.26 51.008-95.257Z" fill="#1d6a89"/>
<path transform="matrix(1,0,0,-1,761.0099,219.8818)" d="M0 0-.006-69.688 12.534-69.678 12.601-34.556C12.609-29.961 13.905-24.934 16.066-21.106 20.153-13.871 27.849-10.268 36.876-11.274L36.916 1.016C27.831 1.39 20.342-2.396 14.649-10.255L12.07-13.815 11.642 .11ZM-3.006-72.691-3 2.972 14.55 3.138 14.81-5.31C21.081 1.538 29.213 4.718 38.548 3.917L39.925 3.799 39.865-14.784 38.114-14.48C29.64-13.005 22.375-16.036 18.678-22.582 16.759-25.98 15.608-30.459 15.601-34.562L15.528-72.675Z" fill="#1d6a89"/>
<path transform="matrix(1,0,0,-1,193.6416,158.3792)" d="M0 0C.445 .805 .814 3.052 .546 3.809 .211 4.755-1.981 5.807-2.992 5.886L-15.365 6.857C-16.966 6.983-19.686 9.102-20.258 10.572-20.94 12.321-20.245 15.415-18.811 17.093L55.385 23.256C60.134 23.352 64.306 22.452 68.257 20.419L103.197 .057-10.313-18.683Z" fill="#1d6a89"/>
<path transform="matrix(1,0,0,-1,349.5955,248.6522)" d="M0 0-199.455-.205C-203.794-.209-208.116 2.422-209.663 6.007L-228.102 48.722-108.003 67.893 75.305 97.083C76.833 97.327 79.671 96.95 80.068 95.974 80.465 94.999 80.493 91.991 79.94 90.851 68.489 67.266 54.8 43.997 39.287 22.476 30.26 9.954 16.963 .017 0 0" fill="#1d6a89"/>
<path transform="matrix(1,0,0,-1,422.6299,231.1553)" d="M0 0C-1.693 1.11-3.058 2.512-3.337 4.462 10.082 .384 22.693-6.334 33.565-15.196 38.174-18.953 42.514-23.141 45.73-28.144 48.945-33.147 50.989-39.039 50.716-44.98 50.283-54.411 44.207-62.644 37.431-69.218 31.992-74.494 26.299-78.536 19.073-80.937 7.058-84.93-5.834-90.564-18.22-93.005-41.187-97.532-63.792-99.244-86.828-103.433-91.423-104.167-96.038-104.77-100.671-105.204-160.891-110.843-220.728-107.231-280.136-96.573L-319.12-89.579C-325.188-88.49-332.28-86.073-338.264-84.24-351.15-80.292-362.122-71.398-370.29-61.39-378.801-50.961-378.802-37.693-371.279-26.824-365.756-18.844-358.146-12.139-349.517-7.197-339.386-1.396-329 4.925-316.84 6.153-330.937-2.595-344.387-7.793-353.265-20.522-376.748-54.193-316.838-75.938-294.028-83.145-285.399-85.871-276.797-86.125-267.733-86.69L-233.266-88.84C-182.178-92.026-132.098-92.76-81.456-86.928-76.08-86.309-70.434-85.75-65.065-85.638-35.67-85.024-4.542-78.073 18.872-59.402 26.694-53.165 33.988-44.492 33.478-34.5 33.098-27.053 28.399-20.507 23.055-15.307 17.405-9.811 10.825-5.274 3.68-1.947 2.462-1.379 1.155-.758 0 0" fill="#1d6a89"/>
<path transform="matrix(1,0,0,-1,109.3421,259.1282)" d="M0 0C1.908 4.773 5.901 8.197 9.762 10.347 3.957-4.696 21.312-14.592 32.461-18.921 76.483-36.012 131.983-39.206 178.919-36.982 210.163-35.5 264.014-29.015 288.35-9.219 295.219-3.632 294.984 3.893 291.196 11.684 296.097 9.312 300.003 5.118 301.911 .101 304.009-5.415 301.822-11.729 297.73-15.918 274.516-39.682 210.607-47.93 178.262-47.869L125.263-47.769C92.112-47.706 28.016-38.913 3.822-14.479 .39-11.013-2.001-5.005 0 0" fill="#1d6a89"/>
<path transform="matrix(1,0,0,-1,254.065,96.36899)" d="M0 0C-12.132 2.531-18.985 13.736-18.444 24.66-17.876 36.15-9.409 46.209 2.875 47.289 17.773 48.599 29.183 36.401 28.428 22.289 27.679 8.291 15.308-3.194 0 0" fill="#1d6a89"/>
</g>
</svg>